<svg id="Layer_1" data-name="Layer 1" xmlns="http://www.w3.org/2000/svg" viewBox="0 0 92.653 50.65">
  <defs>
    <style>
      .cls-1 {
        fill: #fff;
      }
    </style>
  </defs>
  <title>62317 ultimate Blend WHITE stack cen</title>
  <g>
    <g>
      <path class="cls-1" d="M4.01,1.124V13.387c0,4.119,1.532,6.022,3.843,6.022,2.479,0,3.955-1.9,3.955-6.022V1.124h3.425V13.138c0,6.49-2.98,9.36-7.491,9.36C3.4,22.5.585,19.784.585,13.169V1.124Z" transform="translate(-0.585)"/>
      <path class="cls-1" d="M17.79,0h3.453V22.155H17.79Z" transform="translate(-0.585)"/>
      <path class="cls-1" d="M27.646,2.621V6.959H30.9V9.83H27.646v6.708c0,1.842.446,2.809,1.754,2.809a4.545,4.545,0,0,0,1.337-.187l.056,2.934a6.773,6.773,0,0,1-2.479.375,3.745,3.745,0,0,1-2.952-1.249c-.724-.873-1.058-2.246-1.058-4.243V9.83H22.355V6.959H24.3V3.526Z" transform="translate(-0.585)"/>
      <path class="cls-1" d="M35.886,2.715a1.926,1.926,0,1,1-3.843,0,1.928,1.928,0,1,1,3.843,0Zm-3.648,19.44V6.959h3.453v15.2Z" transform="translate(-0.585)"/>
      <path class="cls-1" d="M38.14,11.483c0-1.747-.028-3.214-.111-4.524H40.98l.139,2.246H41.2a4.632,4.632,0,0,1,4.177-2.59A3.939,3.939,0,0,1,49.14,9.424H49.2a5.5,5.5,0,0,1,1.671-1.9A4.194,4.194,0,0,1,53.6,6.615c2.256,0,4.539,1.717,4.539,6.584v8.956H54.793V13.762c0-2.528-.78-4.025-2.423-4.025a2.675,2.675,0,0,0-2.4,2.028,6.108,6.108,0,0,0-.167,1.279v9.111H46.466v-8.8c0-2.122-.751-3.619-2.339-3.619a2.763,2.763,0,0,0-2.451,2.184,3.646,3.646,0,0,0-.195,1.249v8.986H38.14Z" transform="translate(-0.585)"/>
      <path class="cls-1" d="M68.154,22.155l-.223-1.685h-.083a4.837,4.837,0,0,1-4.01,2.027,4.274,4.274,0,0,1-4.261-4.524c0-3.838,3.035-5.772,8.048-5.741v-.25A2.443,2.443,0,0,0,64.868,9.33a6.612,6.612,0,0,0-3.648,1.124l-.668-2.5a8.955,8.955,0,0,1,4.9-1.342c4.344,0,5.6,3.09,5.6,6.4V18.5a27.292,27.292,0,0,0,.195,3.651Zm-.446-7.427c-2.423-.062-4.734.53-4.734,2.84a1.909,1.909,0,0,0,1.949,2.185A2.82,2.82,0,0,0,67.6,17.662a3.072,3.072,0,0,0,.111-.843Z" transform="translate(-0.585)"/>
      <path class="cls-1" d="M77.172,2.621V6.959h3.258V9.83H77.172v6.708c0,1.842.446,2.809,1.754,2.809a4.545,4.545,0,0,0,1.337-.187l.056,2.934a6.773,6.773,0,0,1-2.479.375,3.745,3.745,0,0,1-2.952-1.249c-.724-.873-1.058-2.246-1.058-4.243V9.83H71.882V6.959h1.949V3.526Z" transform="translate(-0.585)"/>
      <path class="cls-1" d="M84.049,15.634a3.835,3.835,0,0,0,4.177,3.932,9.218,9.218,0,0,0,3.76-.687l.5,2.652a11.565,11.565,0,0,1-4.734.937c-4.4,0-6.99-3.027-6.99-7.677,0-4.213,2.284-8.176,6.628-8.176,4.4,0,5.848,4.057,5.848,7.4a10.575,10.575,0,0,1-.111,1.623Zm5.959-2.684c.028-1.4-.529-3.714-2.812-3.714-2.116,0-3.007,2.153-3.146,3.714Z" transform="translate(-0.585)"/>
    </g>
    <g>
      <path class="cls-1" d="M16.384,29.556a25.683,25.683,0,0,1,4.985-.437c2.534,0,4.093.343,5.375,1.342a4.569,4.569,0,0,1,1.949,3.932,4.855,4.855,0,0,1-3.119,4.556v.063a5.181,5.181,0,0,1,3.787,5.211,5.734,5.734,0,0,1-1.81,4.338c-1.337,1.311-3.537,1.966-6.962,1.966a29.632,29.632,0,0,1-4.205-.281Zm3.4,8.3h1.754c2.367,0,3.7-1.248,3.7-3.027,0-1.966-1.336-2.87-3.509-2.87a8.344,8.344,0,0,0-1.949.155Zm0,9.673a13.5,13.5,0,0,0,1.81.094c2.2,0,4.149-.937,4.149-3.526,0-2.434-1.894-3.433-4.261-3.433h-1.7Z" transform="translate(-0.585)"/>
      <path class="cls-1" d="M31.055,28.152h3.453V50.307H31.055Z" transform="translate(-0.585)"/>
      <path class="cls-1" d="M39.408,43.786a3.835,3.835,0,0,0,4.177,3.932,9.218,9.218,0,0,0,3.76-.687l.5,2.652a11.565,11.565,0,0,1-4.734.937c-4.4,0-6.99-3.027-6.99-7.677,0-4.213,2.284-8.176,6.628-8.176,4.4,0,5.848,4.057,5.848,7.4a10.575,10.575,0,0,1-.111,1.623ZM45.367,41.1c.028-1.4-.529-3.714-2.812-3.714-2.116,0-3.007,2.153-3.146,3.714Z" transform="translate(-0.585)"/>
      <path class="cls-1" d="M50.125,39.635c0-1.747-.028-3.214-.111-4.524h3.007l.167,2.277h.083a4.816,4.816,0,0,1,4.316-2.621c2.367,0,4.818,1.717,4.818,6.522v9.018H58.981V41.726c0-2.185-.724-3.838-2.59-3.838a2.945,2.945,0,0,0-2.673,2.246,4.36,4.36,0,0,0-.139,1.248v8.925H50.125Z" transform="translate(-0.585)"/>
      <path class="cls-1" d="M77.328,28.152v17.88c0,1.561.056,3.246.111,4.275H74.376l-.139-2.4h-.056a4.8,4.8,0,0,1-4.428,2.745c-3.23,0-5.792-3.089-5.792-7.77-.028-5.086,2.813-8.113,6.071-8.113a4.181,4.181,0,0,1,3.815,2H73.9V28.152ZM73.9,41.445a6.038,6.038,0,0,0-.083-1,3.113,3.113,0,0,0-2.952-2.715c-2.2,0-3.425,2.185-3.425,5.023,0,2.777,1.225,4.806,3.4,4.806a3.126,3.126,0,0,0,2.952-2.715,4.767,4.767,0,0,0,.111-1.123Z" transform="translate(-0.585)"/>
    </g>
  </g>
</svg>
