<?xml version="1.0" encoding="utf-8"?>
<!-- Generator: Adobe Illustrator 24.0.1, SVG Export Plug-In . SVG Version: 6.00 Build 0)  -->
<svg version="1.1" xmlns="http://www.w3.org/2000/svg" xmlns:xlink="http://www.w3.org/1999/xlink" x="0px" y="0px"
	 viewBox="0 0 301.839 225.7378" style="enable-background:new 0 0 301.839 225.7378;" xml:space="preserve">
<style type="text/css">
	.st0{fill:#F0E4D5;}
	.st1{fill:#ED174E;}
	.st2{fill:#124B8D;}
</style>
<g id="scan">
	<rect class="st0" width="301.839" height="225.7378"/>
</g>
<g id="Layer_1">
	<path id="XMLID_31_" class="st1" d="M260.8297,84.0374c-0.1593,1.0399-0.4656,2.0392-0.9015,2.9712
		c-0.2639-0.1676-0.6136-0.0896-0.7813,0.1742l-1.0858,1.7091c-0.1676,0.2639-0.0896,0.6136,0.1742,0.7813l3.6094,2.2931
		c0.2639,0.1676,0.6136,0.0896,0.7813-0.1742l1.1968-1.8838c0.1063-0.1674,0.0569-0.3892-0.1105-0.4956L263.645,89.37
		c0.7445-1.4457,1.2664-3.0191,1.519-4.6684c0.1392-0.9082,0.448-1.771,0.9189-2.5684c0.9288-1.5728,2.4298-2.7532,4.1826-3.267
		c2.0335-0.5961,4.1629-0.2921,5.9321,0.8319c0.084,0.0534,0.1674,0.1086,0.25,0.1659c3.0343,2.1015,3.9928,6.265,2.1823,9.4781
		c-0.5753,1.021-1.353,1.8603-2.3114,2.4946c-1.3695,0.9062-2.562,2.038-3.549,3.3303c-0.1674-0.1063-0.3893-0.0569-0.4956,0.1105
		l-1.1526,1.8142c-0.192,0.3023-0.1027,0.703,0.1996,0.8951l3.4702,2.2047c0.3023,0.1921,0.703,0.1027,0.8951-0.1996l0.9974-1.5699
		c0.192-0.3023,0.1027-0.703-0.1996-0.8951c0.6402-0.7766,1.3946-1.4645,2.2545-2.0335c1.5099-0.9992,2.8129-2.3718,3.7597-4.0847
		c2.7874-5.0428,1.4029-11.4678-3.2187-14.9088c-5.4839-4.0831-13.1718-2.5907-16.7705,3.0737
		C261.6187,80.9753,261.066,82.495,260.8297,84.0374z"/>
	<path id="XMLID_29_" class="st1" d="M227.6129,87.8836c-0.1593,1.0399-0.4657,2.0392-0.9015,2.9712
		c-0.2638-0.1676-0.6136-0.0896-0.7813,0.1742l-1.0858,1.7091c-0.1676,0.2639-0.0896,0.6136,0.1742,0.7813l3.6094,2.2931
		c0.2638,0.1676,0.6136,0.0896,0.7813-0.1742l1.1968-1.8838c0.1063-0.1674,0.0568-0.3892-0.1105-0.4956l-0.0672-0.0427
		c0.7445-1.4457,1.2664-3.0191,1.5191-4.6684c0.1392-0.9082,0.448-1.771,0.9188-2.5684c0.9288-1.5728,2.4298-2.7532,4.1827-3.267
		c2.0335-0.5961,4.1629-0.2921,5.9321,0.8319c0.084,0.0534,0.1674,0.1086,0.25,0.1659c3.0343,2.1015,3.9928,6.265,2.1823,9.4781
		c-0.5754,1.021-1.353,1.8603-2.3114,2.4947c-1.3695,0.9062-2.5619,2.038-3.549,3.3303c-0.1673-0.1063-0.3892-0.0569-0.4956,0.1105
		l-1.1526,1.8142c-0.192,0.3023-0.1027,0.703,0.1996,0.8951l3.4702,2.2047c0.3023,0.1921,0.703,0.1027,0.8951-0.1996l0.9974-1.5699
		c0.192-0.3023,0.1027-0.703-0.1996-0.8951c0.6402-0.7766,1.3946-1.4645,2.2545-2.0335c1.5099-0.9992,2.8129-2.3718,3.7597-4.0847
		c2.7874-5.0428,1.4028-11.4678-3.2187-14.9088c-5.4839-4.0831-13.1718-2.5907-16.7705,3.0737
		C228.4019,84.8214,227.8492,86.3411,227.6129,87.8836z"/>
	<path id="XMLID_27_" class="st1" d="M242.2982,116.2053c-0.1593,1.0399-0.4657,2.0392-0.9015,2.9712
		c-0.2638-0.1676-0.6136-0.0896-0.7813,0.1742l-1.0858,1.7091c-0.1676,0.2639-0.0896,0.6136,0.1742,0.7813l3.6094,2.2931
		c0.2638,0.1676,0.6136,0.0896,0.7813-0.1742l1.1968-1.8838c0.1063-0.1674,0.0568-0.3892-0.1105-0.4956l-0.0672-0.0427
		c0.7445-1.4457,1.2664-3.0191,1.5191-4.6684c0.1392-0.9082,0.448-1.771,0.9188-2.5684c0.9288-1.5728,2.4298-2.7532,4.1826-3.267
		c2.0335-0.5961,4.1629-0.2921,5.9321,0.8319c0.084,0.0534,0.1674,0.1086,0.25,0.1659c3.0343,2.1015,3.9929,6.265,2.1823,9.4781
		c-0.5753,1.021-1.353,1.8603-2.3114,2.4947c-1.3695,0.9062-2.562,2.038-3.549,3.3303c-0.1674-0.1063-0.3892-0.0569-0.4956,0.1105
		l-1.1526,1.8142c-0.192,0.3023-0.1027,0.703,0.1996,0.8951l3.4703,2.2047c0.3023,0.192,0.703,0.1027,0.8951-0.1996l0.9974-1.5699
		c0.192-0.3023,0.1027-0.703-0.1996-0.8951c0.6402-0.7766,1.3946-1.4645,2.2545-2.0335c1.5099-0.9992,2.8129-2.3718,3.7597-4.0847
		c2.7874-5.0428,1.4029-11.4678-3.2187-14.9088c-5.4839-4.0831-13.1718-2.5907-16.7705,3.0737
		C243.0872,113.1431,242.5345,114.6628,242.2982,116.2053z"/>
	<path id="XMLID_25_" class="st1" d="M209.0814,120.0514c-0.1593,1.0399-0.4657,2.0392-0.9015,2.9712
		c-0.2638-0.1676-0.6136-0.0896-0.7813,0.1742l-1.0858,1.7091c-0.1676,0.2639-0.0896,0.6136,0.1742,0.7813l3.6094,2.2931
		c0.2638,0.1676,0.6136,0.0896,0.7813-0.1742l1.1968-1.8838c0.1063-0.1674,0.0568-0.3892-0.1105-0.4956l-0.0672-0.0427
		c0.7445-1.4457,1.2664-3.0191,1.5191-4.6684c0.1392-0.9082,0.448-1.771,0.9188-2.5684c0.9288-1.5728,2.4298-2.7532,4.1826-3.267
		c2.0335-0.5961,4.1629-0.2921,5.9321,0.8319c0.084,0.0534,0.1674,0.1086,0.25,0.1659c3.0343,2.1015,3.9928,6.265,2.1823,9.4781
		c-0.5754,1.021-1.353,1.8603-2.3114,2.4947c-1.3695,0.9062-2.5619,2.038-3.549,3.3303c-0.1674-0.1063-0.3892-0.0569-0.4956,0.1105
		l-1.1526,1.8142c-0.192,0.3023-0.1027,0.703,0.1996,0.8951l3.4703,2.2047c0.3023,0.192,0.703,0.1027,0.8951-0.1996l0.9974-1.5699
		c0.192-0.3023,0.1027-0.703-0.1996-0.8951c0.6402-0.7766,1.3946-1.4645,2.2546-2.0335c1.5099-0.9992,2.8129-2.3718,3.7597-4.0847
		c2.7874-5.0428,1.4029-11.4678-3.2187-14.9088c-5.4839-4.0831-13.1718-2.5907-16.7705,3.0737
		C209.8704,116.9892,209.3177,118.509,209.0814,120.0514z"/>
	<path id="XMLID_23_" class="st1" d="M223.7667,148.3731c-0.1593,1.0399-0.4657,2.0392-0.9015,2.9712
		c-0.2639-0.1676-0.6136-0.0896-0.7813,0.1742l-1.0858,1.7091c-0.1676,0.2639-0.0896,0.6136,0.1742,0.7813l3.6094,2.2931
		c0.2639,0.1676,0.6136,0.0896,0.7813-0.1742l1.1968-1.8838c0.1063-0.1674,0.0568-0.3892-0.1105-0.4956l-0.0672-0.0427
		c0.7445-1.4457,1.2664-3.0191,1.5191-4.6684c0.1392-0.9082,0.448-1.771,0.9189-2.5684c0.9288-1.5728,2.4298-2.7532,4.1826-3.267
		c2.0335-0.5961,4.1629-0.2921,5.9321,0.8319c0.084,0.0534,0.1674,0.1086,0.25,0.1659c3.0343,2.1015,3.9928,6.265,2.1823,9.4781
		c-0.5754,1.021-1.353,1.8603-2.3114,2.4947c-1.3695,0.9062-2.562,2.038-3.549,3.3303c-0.1674-0.1063-0.3892-0.0569-0.4956,0.1105
		l-1.1526,1.8142c-0.192,0.3023-0.1027,0.703,0.1996,0.8951l3.4703,2.2047c0.3023,0.192,0.703,0.1027,0.8951-0.1996l0.9974-1.5699
		c0.192-0.3023,0.1027-0.703-0.1996-0.8951c0.6402-0.7766,1.3946-1.4645,2.2546-2.0336c1.5099-0.9992,2.8129-2.3718,3.7597-4.0847
		c2.7874-5.0428,1.4029-11.4678-3.2187-14.9088c-5.4839-4.0831-13.1718-2.5907-16.7705,3.0737
		C224.5557,145.3109,224.003,146.8306,223.7667,148.3731z"/>
	<path id="XMLID_21_" class="st1" d="M190.5499,152.2193c-0.1593,1.0399-0.4657,2.0392-0.9015,2.9712
		c-0.2639-0.1676-0.6136-0.0896-0.7813,0.1742l-1.0858,1.7091c-0.1676,0.2639-0.0896,0.6136,0.1742,0.7813l3.6094,2.2931
		c0.2639,0.1676,0.6136,0.0896,0.7813-0.1742l1.1968-1.8838c0.1063-0.1674,0.0569-0.3893-0.1105-0.4956l-0.0672-0.0427
		c0.7445-1.4457,1.2664-3.0191,1.5191-4.6684c0.1392-0.9082,0.448-1.771,0.9188-2.5684c0.9288-1.5728,2.4298-2.7532,4.1827-3.267
		c2.0335-0.5961,4.1629-0.2921,5.9321,0.8319c0.084,0.0534,0.1674,0.1086,0.25,0.1659c3.0343,2.1015,3.9928,6.265,2.1823,9.4781
		c-0.5753,1.021-1.353,1.8603-2.3114,2.4946c-1.3695,0.9062-2.562,2.038-3.549,3.3303c-0.1674-0.1063-0.3892-0.0569-0.4956,0.1105
		l-1.1526,1.8142c-0.192,0.3023-0.1027,0.703,0.1996,0.8951l3.4702,2.2047c0.3023,0.192,0.703,0.1027,0.8951-0.1996l0.9974-1.5699
		c0.192-0.3023,0.1027-0.703-0.1996-0.8951c0.6402-0.7766,1.3946-1.4645,2.2546-2.0335c1.5099-0.9992,2.8129-2.3718,3.7597-4.0847
		c2.7874-5.0428,1.4029-11.4678-3.2187-14.9088c-5.4839-4.0831-13.1718-2.5907-16.7705,3.0737
		C191.3389,149.1571,190.7863,150.6768,190.5499,152.2193z"/>
	<path id="XMLID_19_" class="st1" d="M205.2352,180.5409c-0.1593,1.0399-0.4657,2.0392-0.9015,2.9712
		c-0.2639-0.1676-0.6136-0.0896-0.7813,0.1742l-1.0858,1.7091c-0.1676,0.2639-0.0896,0.6136,0.1742,0.7813l3.6094,2.2931
		c0.2639,0.1676,0.6136,0.0896,0.7813-0.1742l1.1968-1.8838c0.1063-0.1674,0.0569-0.3892-0.1105-0.4956l-0.0672-0.0427
		c0.7445-1.4457,1.2664-3.0191,1.5191-4.6684c0.1392-0.9082,0.448-1.771,0.9188-2.5685c0.9288-1.5728,2.4298-2.7532,4.1827-3.267
		c2.0335-0.5961,4.1629-0.2921,5.9321,0.8319c0.084,0.0534,0.1674,0.1086,0.25,0.1659c3.0343,2.1015,3.9928,6.265,2.1823,9.4781
		c-0.5753,1.021-1.353,1.8603-2.3114,2.4947c-1.3695,0.9062-2.5619,2.038-3.549,3.3303c-0.1674-0.1063-0.3892-0.0569-0.4956,0.1105
		l-1.1526,1.8142c-0.192,0.3023-0.1027,0.703,0.1996,0.8951l3.4702,2.2047c0.3023,0.192,0.703,0.1027,0.8951-0.1996l0.9974-1.5699
		c0.192-0.3023,0.1027-0.703-0.1996-0.8951c0.6402-0.7766,1.3946-1.4645,2.2545-2.0335c1.5099-0.9992,2.8129-2.3718,3.7597-4.0847
		c2.7874-5.0428,1.4029-11.4678-3.2187-14.9088c-5.4839-4.0831-13.1718-2.5907-16.7705,3.0737
		C206.0243,177.4787,205.4716,178.9985,205.2352,180.5409z"/>
	<path id="XMLID_17_" class="st1" d="M172.0185,184.3871c-0.1593,1.0399-0.4657,2.0392-0.9015,2.9712
		c-0.2638-0.1676-0.6136-0.0896-0.7813,0.1742l-1.0858,1.7091c-0.1676,0.2639-0.0896,0.6136,0.1742,0.7813l3.6094,2.2931
		c0.2638,0.1676,0.6136,0.0896,0.7813-0.1742l1.1968-1.8838c0.1063-0.1674,0.0568-0.3892-0.1105-0.4956l-0.0672-0.0427
		c0.7445-1.4457,1.2664-3.0191,1.5191-4.6684c0.1392-0.9082,0.448-1.771,0.9188-2.5684c0.9288-1.5728,2.4298-2.7532,4.1827-3.267
		c2.0335-0.5961,4.1629-0.2921,5.9321,0.8319c0.084,0.0534,0.1674,0.1086,0.25,0.1659c3.0343,2.1015,3.9928,6.265,2.1823,9.4781
		c-0.5754,1.021-1.353,1.8603-2.3114,2.4946c-1.3695,0.9062-2.5619,2.038-3.549,3.3303c-0.1673-0.1063-0.3892-0.0569-0.4956,0.1105
		l-1.1526,1.8142c-0.192,0.3023-0.1027,0.703,0.1996,0.8951l3.4702,2.2047c0.3023,0.192,0.703,0.1027,0.8951-0.1996l0.9974-1.5699
		c0.192-0.3023,0.1027-0.703-0.1996-0.8951c0.6402-0.7766,1.3946-1.4645,2.2545-2.0335c1.5099-0.9992,2.8129-2.3718,3.7597-4.0847
		c2.7874-5.0428,1.4028-11.4678-3.2187-14.9088c-5.4839-4.0831-13.1718-2.5907-16.7705,3.0737
		C172.8075,181.3249,172.2548,182.8446,172.0185,184.3871z"/>
	<path class="st2" d="M112.8267,89.907c0,3.7948,1.8974,3.5409,5.0591,4.68c1.0122,0.3791,2.9096,0.3791,2.9096,1.6452
		c0,1.3913-2.0235,1.3913-3.1626,1.3913c-3.2887,0-6.4513-0.5061-9.74-0.5061c-3.5417,0-6.9565,0.5061-10.4991,0.5061
		c-1.0113,0-2.4035,0-2.4035-1.3913c0-0.5061,0.38-1.2661,2.2774-1.6452c5.06-1.0122,6.9574-2.1496,6.9574-7.0835V60.434
		c0-4.4278-6.0721-2.4035-6.0721-4.9339c0-1.6435,3.4156-1.2644,6.7043-3.4156c6.1982-4.047,6.7043-5.0591,7.5895-5.0591
		c0.5061,0,0.8852,0.1269,0.8852,0.8852c0,2.1513-0.5052,4.3008-0.5052,6.4521V89.907z M113.965,24.6359
		c0,2.7826-2.6565,5.44-5.4391,5.44c-2.7835,0-5.44-2.6574-5.44-5.44s2.6565-5.44,5.44-5.44
		C111.3085,19.196,113.965,21.8533,113.965,24.6359z"/>
	<path class="st2" d="M146.2536,54.8671c-3.5417,0-3.9209,1.0122-3.9209,5.0608c0,6.8313-0.38,17.3286-0.38,24.4138
		c0,5.1861,2.0243,8.2209,8.7287,8.2209c5.3122,0,5.3122-1.3913,7.8426-1.3913c0.8852,0,1.3913,0.3791,1.3913,1.2661
		c0,1.2644-3.6687,5.6922-12.9025,5.6922c-9.4869,0-13.9147-3.5426-13.9147-13.0295c0-8.7286,0.2531-17.4556,0.2531-27.3234
		c0-1.7704-0.6322-2.1496-2.7826-2.1496h-2.7826c-0.38,0-1.0122-0.2539-1.0122-1.0122c0-2.0243,6.0721-3.0365,9.2339-6.5774
		c4.8069-5.313,3.7948-7.4643,5.6922-7.4643c1.5182,0,1.5182,1.0122,1.5182,2.4035v4.6817c0,1.1374,0.253,1.6435,2.0243,1.6435
		h13.6608c1.2652,0,2.2774,0.2539,2.2774,2.7826c0,1.6452-0.127,2.7826-2.1504,2.7826H146.2536z"/>
	<g>
		<path class="st2" d="M34.0896,145.6406c0-1.8974,0.1261-3.9217,0.1261-5.0591c0-3.4156-2.0235-3.5426-5.8182-4.0487
			c-3.5417-0.5061-5.313-0.6313-5.313-2.1496s4.3009-2.1513,6.5774-2.1513c12.0173,0,23.9077-1.0122,26.5642-1.0122
			c18.9738,0,26.8164,9.8678,26.8164,18.2156c0,12.2695-8.6017,13.2817-8.6017,14.5478c0,1.8974,14.2939,4.8052,14.2939,20.8712
			c0,11.3843-3.4148,18.0886-17.5825,22.7686c-3.4156,1.1391-16.1912,1.5182-34.912,1.5182c-3.0365,0-6.8313,0.2522-9.74,0.2522
			c-3.0365,0-4.5539,0-4.5539-1.6435c0-1.5182,2.7826-1.5182,5.4391-1.6452c2.7826-0.127,5.5661-1.0122,5.5661-4.047
			L34.0896,145.6406z M44.8417,196.1117c0,5.44,1.5174,8.7287,13.6608,8.7287c2.5304,0,5.313-0.2539,7.9695-1.0122
			c6.5774-1.8974,10.8782-8.2226,10.8782-16.1912c0-16.6973-14.1669-18.7217-28.0816-18.7217c-2.5296,0-4.4269,0.127-4.4269,0.8852
			V196.1117z M45.0947,164.3623c0.8852,0.3791,4.1739,0.7583,7.7156,0.7583c1.7713,0,4.4278-0.2522,6.5782-0.3791
			c8.3478-0.633,13.7878-7.3373,13.7878-15.1791c0-14.0417-12.5234-14.2939-20.366-14.2939c-5.8182,0-7.7156,0.633-7.7156,3.7948
			V164.3623z"/>
	</g>
	<path class="st2" d="M112.8267,201.9308c0,3.7948,1.8974,3.5409,5.0591,4.68c1.0122,0.3791,2.9096,0.3791,2.9096,1.6452
		c0,1.3913-2.0235,1.3913-3.1626,1.3913c-3.2887,0-6.4513-0.5061-9.74-0.5061c-3.5417,0-6.9565,0.5061-10.4991,0.5061
		c-1.0113,0-2.4035,0-2.4035-1.3913c0-0.5061,0.38-1.2661,2.2774-1.6452c5.06-1.0122,6.9574-2.1496,6.9574-7.0835v-27.0695
		c0-4.4278-6.0721-2.4035-6.0721-4.9339c0-1.6435,3.4156-1.2644,6.7043-3.4156c6.1982-4.047,6.7043-5.0591,7.5895-5.0591
		c0.5061,0,0.8852,0.1269,0.8852,0.8852c0,2.1513-0.5052,4.3009-0.5052,6.4521V201.9308z M113.965,136.6598
		c0,2.7826-2.6565,5.44-5.4391,5.44c-2.7835,0-5.44-2.6574-5.44-5.44s2.6565-5.44,5.44-5.44
		C111.3085,131.2198,113.965,133.8772,113.965,136.6598z"/>
	<path class="st2" d="M146.2536,166.891c-3.5417,0-3.9209,1.0122-3.9209,5.0608c0,6.8313-0.38,17.3286-0.38,24.4138
		c0,5.1861,2.0243,8.2208,8.7287,8.2208c5.3122,0,5.3122-1.3913,7.8426-1.3913c0.8852,0,1.3913,0.3791,1.3913,1.2661
		c0,1.2644-3.6687,5.6922-12.9025,5.6922c-9.4869,0-13.9147-3.5426-13.9147-13.0295c0-8.7287,0.2531-17.4556,0.2531-27.3233
		c0-1.7704-0.6322-2.1496-2.7826-2.1496h-2.7826c-0.38,0-1.0122-0.2539-1.0122-1.0122c0-2.0243,6.0721-3.0365,9.2339-6.5774
		c4.8069-5.313,3.7948-7.4643,5.6922-7.4643c1.5182,0,1.5182,1.0122,1.5182,2.4035v4.6817c0,1.1374,0.253,1.6435,2.0243,1.6435
		h13.6608c1.2652,0,2.2774,0.2539,2.2774,2.7826c0,1.6452-0.127,2.7826-2.1504,2.7826H146.2536z"/>
	<g>
		<path class="st1" d="M189.2117,50.8904l8.5698,0.8963c1.8307,0.3858,0.6233,5.3935,0.6233,5.3935
			c-2.3372,7.2296-5.921,7.0541-5.921,7.0541c-6.0768-0.5267-6.0768-5.3516-6.0768-5.3516
			C186.9047,50.5748,189.2117,50.8904,189.2117,50.8904z"/>
		<path class="st1" d="M190.5013,46.2165c0.2601,0.6583,0.8763,1.1036,1.5805,1.1534l7.1416,0.5045
			c1.7758,0.2264,4.7577-3.372,5.2141-3.9373c0.0384-0.0476,0.0738-0.0956,0.1078-0.1464
			c6.8836-10.276,5.5837-17.2838,5.5837-17.2838c-0.3265-2.2104-5.1424-1.8699-5.1424-1.8699
			c-3.2778-0.2416-8.3353,4.9589-8.9898,5.6476c-0.0472,0.0497-0.0902,0.1002-0.132,0.1545
			C189.1004,39.2184,189.7003,44.1896,190.5013,46.2165z"/>
	</g>
	<g>
		<path class="st1" d="M158.7859,108.7979l8.5698,0.8963c1.8307,0.3858,0.6233,5.3935,0.6233,5.3935
			c-2.3372,7.2296-5.921,7.0541-5.921,7.0541c-6.0768-0.5267-6.0768-5.3516-6.0768-5.3516
			C156.4789,108.4823,158.7859,108.7979,158.7859,108.7979z"/>
		<path class="st1" d="M160.0755,104.124c0.2601,0.6583,0.8763,1.1036,1.5805,1.1534l7.1416,0.5045
			c1.7758,0.2264,4.7577-3.372,5.2141-3.9373c0.0384-0.0476,0.0738-0.0956,0.1078-0.1464
			c6.8836-10.276,5.5837-17.2838,5.5837-17.2838c-0.3265-2.2104-5.1424-1.8699-5.1424-1.8699
			c-3.2778-0.2416-8.3353,4.9589-8.9898,5.6476c-0.0472,0.0497-0.0902,0.1002-0.132,0.1545
			C158.6747,97.126,159.2746,102.0971,160.0755,104.124z"/>
	</g>
	<g>
		<path class="st1" d="M202.2769,87.685l-5.3081-6.7874c-1.2986-1.3468-4.9019,2.3344-4.9019,2.3344
			c-4.8868,5.818-2.8359,8.7622-2.8359,8.7622c3.6717,4.8707,7.7609,2.3099,7.7609,2.3099
			C203.7688,89.4727,202.2769,87.685,202.2769,87.685z"/>
		<path class="st1" d="M205.5536,84.1114c-0.696,0.1289-1.4004-0.1569-1.8164-0.7274l-4.218-5.785
			c-1.1344-1.3849,0.3327-5.8219,0.5696-6.5088c0.0199-0.0578,0.0419-0.1133,0.0668-0.1691
			c5.0557-11.288,11.685-13.9057,11.685-13.9057c2.0467-0.8965,4.3141,3.3658,4.3141,3.3658
			c1.9444,2.6498,0.2212,9.6964-0.0151,10.6166c-0.017,0.0663-0.037,0.1296-0.0609,0.1939
			C212.2282,81.5844,207.6966,83.7144,205.5536,84.1114z"/>
	</g>
	<g>
		<path class="st1" d="M166.6089,148.0577l-5.3081-6.7874c-1.2986-1.3468-4.9019,2.3344-4.9019,2.3344
			c-4.8868,5.818-2.8359,8.7621-2.8359,8.7621c3.6717,4.8707,7.7609,2.3099,7.7609,2.3099
			C168.1008,149.8454,166.6089,148.0577,166.6089,148.0577z"/>
		<path class="st1" d="M169.8856,144.484c-0.696,0.1289-1.4005-0.1569-1.8164-0.7274l-4.218-5.785
			c-1.1344-1.3849,0.3327-5.8219,0.5696-6.5088c0.0199-0.0578,0.0419-0.1133,0.0669-0.1691
			c5.0557-11.288,11.685-13.9057,11.685-13.9057c2.0467-0.8965,4.3141,3.3658,4.3141,3.3658
			c1.9444,2.6498,0.2212,9.6964-0.0152,10.6166c-0.017,0.0663-0.037,0.1296-0.0608,0.1939
			C176.5602,141.957,172.0286,144.0871,169.8856,144.484z"/>
	</g>
	<g>
		<path class="st2" d="M34.0896,33.6168c0-1.8974,0.1261-3.9217,0.1261-5.0591c0-3.4156-2.0235-3.5426-5.8182-4.0487
			c-3.5417-0.5061-5.313-0.6313-5.313-2.1496c0-1.5182,4.3009-2.1513,6.5774-2.1513c12.0173,0,23.9077-1.0122,26.5642-1.0122
			c18.9738,0,26.8164,9.8678,26.8164,18.2156c0,12.2695-8.6017,13.2817-8.6017,14.5478c0,1.8974,14.2939,4.8052,14.2939,20.8712
			c0,11.3843-3.4148,18.0886-17.5825,22.7686c-3.4156,1.1391-16.1912,1.5182-34.912,1.5182c-3.0365,0-6.8313,0.2522-9.74,0.2522
			c-3.0365,0-4.5539,0-4.5539-1.6435c0-1.5182,2.7826-1.5182,5.4391-1.6452c2.7826-0.127,5.5661-1.0122,5.5661-4.047
			L34.0896,33.6168z M44.8417,84.0879c0,5.44,1.5174,8.7287,13.6608,8.7287c2.5304,0,5.313-0.2539,7.9695-1.0122
			c6.5774-1.8974,10.8782-8.2226,10.8782-16.1912c0-16.6973-14.1669-18.7217-28.0816-18.7217c-2.5296,0-4.4269,0.1269-4.4269,0.8852
			V84.0879z M45.0947,52.3384c0.8852,0.3791,4.1739,0.7583,7.7156,0.7583c1.7713,0,4.4278-0.2522,6.5782-0.3791
			c8.3478-0.633,13.7878-7.3374,13.7878-15.1791c0-14.0417-12.5234-14.2939-20.366-14.2939c-5.8182,0-7.7156,0.633-7.7156,3.7948
			V52.3384z"/>
	</g>
	<g>
		<g>
			<path class="st1" d="M78.9368,73.9571c-0.658,0.8454-2.0657,7.7999-2.9111,9.2077c-0.0956,1.0367-0.8492,3.856-1.599,4.4183
				c-0.2831,1.0329-0.7536,2.3488-1.5034,3.4773c-0.658,2.8193-3.6647,5.9179-4.2271,8.6454
				c-0.8454,1.6908-1.599,3.0986-2.7275,4.2271c-1.6908,4.885-4.6019,7.7043-6.2009,11.2734
				c-0.4705,2.3488-0.9372,3.1024-0.9372,5.3555c0,4.5101,1.3121,9.5864,3.0986,9.5864c2.9149-0.4705,5.4512-2.3488,5.4512-3.9478
				c0-0.8454-2.7275-0.8454-2.7275-1.8783c0-1.8783,0.3787-4.5101,2.6319-6.8589c0.5662-1.6908,2.3488-2.9149,2.7275-4.2309
				c1.3121-0.9372,2.5362-2.0657,3.0986-2.0657s1.3159,0.1874,2.257,0.1874c0.3749,0,1.1247-0.1874,1.7826-0.1874
				c1.5034,0,1.6908,0.658,1.6908,1.9739c0,1.0329-1.4077,5.4512-2.1613,5.9179c-0.4667,1.7865-1.0329,3.1024-1.6908,4.0434
				c-0.3749,1.7826-1.6908,2.628-3.286,6.3884c-2.4444,1.9739-2.8193,3.7565-4.5101,5.1681
				c-2.9149,1.0329-3.1024,3.944-8.2705,3.944c-3.0068,0-3.6647-2.1613-4.6976-2.4406c-0.8454-2.1613-1.9739-5.6386-2.4444-12.8724
				c-0.7498,0.1874-1.8783,2.1613-2.1613,2.1613c-0.3749,0-0.3749-0.1913-0.3749-0.5662c0-1.9739,0.1874-3.4773,0.1874-5.0725
				c0-1.599,2.9149-1.599,3.1024-4.1352c0.3749-4.3227,0.4705-5.4512,1.3159-7.3294c1.6908-10.9941,4.0396-14.5632,4.227-17.6618
				c0.0956-1.6946,1.599-3.1024,2.4444-6.7671c0.1874-0.941,1.6908-2.8193,1.7826-3.7604c1.9739-5.7304,3.2898-7.1382,4.5101-8.829
				c0.658-0.3787,1.2241-0.941,1.5034-2.1613c3.6647-1.599,5.3555-3.1024,6.9545-3.1024c0.2831,0,0.3749,0.3749,0.658,0.3749
				c0.5623,0,0.8454-0.1874,1.1285-0.1874c0.658,0,1.8783,0.658,1.8783,2.7275V73.9571z M67.2846,86.6421
				c-0.4705,2.6319-2.2532,3.3855-3.944,9.0202c-1.3159,2.4444-1.1285,4.5101-2.1613,8.3623c0.8454,0,0.8454-1.5952,1.6908-2.5362
				c1.1285-1.1285,1.8783-5.2599,3.3816-6.8589c1.8783-4.6976,2.5362-8.1748,4.885-14.0009c0-0.2793-0.2793-0.3749-0.4705-0.3749
				C69.9165,80.2537,69.5416,82.0401,67.2846,86.6421z"/>
		</g>
		<path class="st1" d="M116.1137,116.2391c-0.0956,0.8492-3.4773,7.9874-3.4773,9.7739c0,0.2831,0.1874,0.3749,0.4705,0.3749
			c0.1874,0,0.9372-1.2203,2.7237-3.0068c1.5034-0.5623,4.9807-5.0725,6.484-5.0725c0.1874,0,0.4705,0.1874,0.4705,0.5623
			c0,0.1874-0.0956,0.3749-0.0956,0.5662c0,0.4667,0.4705,3.1942,0.4705,3.6647c0,2.5362-14.0009,9.5826-17.9487,18.2279
			c-0.8454,0.658-1.9701,3.7565-3.3816,5.2599c-1.8783,4.0396-3.8522,5.4512-4.3227,6.7671
			c-0.8454,0.3749-2.5362,3.6647-3.7565,3.8522c-1.5034,3.0067-4.885,5.826-8.4579,5.826c-1.4077,0-2.5362-0.3787-2.5362-1.7865
			c0-2.7237,2.3488-3.9478,3.0068-5.9217c1.5034-0.2793,1.7865-3.0986,2.9111-3.286c1.7865-2.9149,4.3227-6.7671,5.3594-7.0464
			c1.0329-2.0695,5.0725-6.7671,7.1382-8.3623c1.2241-3.7603,3.1024-8.2705,4.0396-9.399c0-3.4734,1.3159-3.7565,1.3159-8.3623
			l-0.3749-0.3749c-2.4444,2.1613-4.885,2.9111-5.0725,4.6976c-2.0695,2.0657-3.5729,3.9478-5.5468,4.227
			c-1.3121,2.1613-3.286,4.2309-6.9507,4.2309c-2.1613,0-3.1942-0.658-3.1942-2.9149c0-0.8454,0.0918-1.6908,0.2793-2.5362
			c-0.3749-0.2831-0.3749-0.658-0.3749-1.4077c0-3.0068-0.0918-3.7604-0.5623-3.7604c-0.5662,0-4.9806,4.3227-5.7304,4.6058
			l-0.2831-0.5662c0.2831-0.5623,0.658-1.4077,0.658-2.0657c0-0.7536-0.1874-2.0657-0.3749-2.8193
			c0-0.941,2.0657-2.4406,4.885-4.7932c5.543-5.8222,7.4212-8.7372,9.4908-8.7372c1.5034,0,3.0986,1.1285,3.0986,2.7237
			c0,0.7536-1.5952,6.2966-1.8783,6.5797c-0.3749,2.1613-1.2203,3.8522-1.2203,6.1053c0,0.3787,0.1874,0.658,0.4667,0.658
			c0.2831,0,0.658-0.0918,0.941-0.1874c0.3749-1.1285,3.6647-2.3488,4.7932-3.7565c0.5623-0.7536,2.2532-2.7275,2.8193-2.7275
			c4.885-4.885,5.9179-6.5758,6.7633-6.7633c1.6908-0.3749,2.9149-4.885,7.142-4.885c2.1613,0,2.6319,0.658,2.6319,1.6908
			C118.933,109.1927,116.5804,112.67,116.1137,116.2391z"/>
		<path class="st1" d="M71.6758,126.4834c2.0695-2.7237,3.2898-2.6319,4.4183-5.0763c2.5362-1.6908,2.7237-3.0986,3.286-3.0986
			c0.941,0,0.941,3.5691,1.4116,3.5691c0,3.3816-2.3488,3.0068-6.3884,6.484c-2.0695,0.9411-3.2898,2.5362-4.2309,2.5362
			c-0.7498,0-1.0329-0.1875-1.0329-0.8454C69.1396,129.2071,70.7386,127.2332,71.6758,126.4834z"/>
	</g>
</g>
</svg>
