<?xml version="1.0" encoding="utf-8"?>
<!-- Generator: Adobe Illustrator 26.4.1, SVG Export Plug-In . SVG Version: 6.00 Build 0)  -->
<svg version="1.1" id="Layer_1" xmlns="http://www.w3.org/2000/svg" xmlns:xlink="http://www.w3.org/1999/xlink" x="0px" y="0px"
	 viewBox="0 0 554.3496 164.1401" style="enable-background:new 0 0 554.3496 164.1401;" xml:space="preserve">
<style type="text/css">
	.st0{fill:#21BCBB;}
</style>
<g>
	<path class="st0" d="M472.2793,164.1401H82.0698C36.8164,164.1401,0,127.3237,0,82.0703C0,36.8164,36.8164,0,82.0698,0h390.2095
		c45.2539,0,82.0703,36.8164,82.0703,82.0698C554.3496,127.3237,517.5332,164.1401,472.2793,164.1401z M82.0698,4
		C39.022,4,4,39.022,4,82.0698s35.022,78.0703,78.0698,78.0703h390.2095c43.0479,0,78.0703-35.0215,78.0703-78.0698
		S515.3271,4,472.2793,4H82.0698z"/>
</g>
<g>
	<path class="st0" d="M149.3325,43.3447c-1.0137-2.751-2.4614-3.1855-5.2124-3.1855h-1.4482v-8.9766h4.4888
		c7.2393,0,9.4111,1.4478,11.8726,8.3975l25.0488,68.4863c1.8823,5.2124,3.9097,13.1758,3.9097,13.1758h0.2896
		c0,0,2.0269-7.9634,3.9092-13.1758l25.0488-68.4863c2.6064-7.0947,4.7783-8.3975,12.0176-8.3975h4.3438v8.9766h-1.3032
		c-2.751,0-4.1987,0.4346-5.2124,3.1855l-33.4468,89.6255h-10.8589L149.3325,43.3447z"/>
	<path class="st0" d="M248.8076,71.8687c0-2.0273-1.1582-3.1855-3.1855-3.1855h-6.0811v-8.5425h10.2803
		c6.2256,0,8.832,2.606,8.832,8.832v52.2695c0,2.1719,1.1582,3.1855,3.1855,3.1855h6.0811v8.5425h-10.2803
		c-6.2261,0-8.832-2.6064-8.832-8.832V71.8687z M248.5181,31.1826h9.5562v12.4517h-9.5562V31.1826z"/>
	<path class="st0" d="M281.6753,115.1611c0,0,8.1084,11.0044,22.4424,11.0044c8.1084,0,15.3481-3.9097,15.3481-11.5835
		c0-15.9272-40.8311-13.0312-40.8311-36.4873c0-13.1763,11.2935-19.6919,25.9175-19.6919c7.3843,0,22.1528,2.896,22.1528,13.1763
		v6.2261h-9.2666v-3.4751c0-5.3574-7.8184-7.3843-12.5967-7.3843c-10.1353,0-16.2163,3.4746-16.2163,10.5698
		c0,16.3613,40.8306,12.5967,40.8306,36.7764c0,12.1626-11.0039,20.4155-25.4829,20.4155
		c-18.9678,0-27.9448-12.7412-27.9448-12.7412L281.6753,115.1611z"/>
	<path class="st0" d="M348.8584,71.8687c0-2.0273-1.1582-3.1855-3.1846-3.1855h-6.082v-8.5425h10.2803
		c6.2266,0,8.833,2.606,8.833,8.832v52.2695c0,2.1719,1.1582,3.1855,3.1846,3.1855h6.0811v8.5425h-10.2793
		c-6.2266,0-8.833-2.6064-8.833-8.832V71.8687z M348.5693,31.1826h9.5557v12.4517h-9.5557V31.1826z"/>
	<path class="st0" d="M385.3467,68.3936H375.79v-8.2529h9.7012v-20.126h9.7012v20.126h18.2432v8.2529h-18.2432V105.46
		c0,17.0854,10.8594,19.2573,16.3613,19.2573c2.0264,0,3.3301-0.2896,3.3301-0.2896v8.8325c0,0-1.7373,0.2891-4.1992,0.2891
		c-8.3975,0-25.3379-2.751-25.3379-27.0757V68.3936z"/>
</g>
</svg>
